# xmcd
#
# Track frame offsets: 
#        182
#        21590
#        35027
#        49302
#        69727
#        91022
#        110160
#        127820
#        141815
#        158142
#        173072
#        190115
#        208922
#        225402
#        237960
#        249397
#        268715
#        284895
#        304827
#        320087
#
# Disc length: 4492 seconds
#
# Revision: 4
# Processed by: cddbd v1.4PL0 Copyright (c) Steve Scherf et al.
# Submitted via: ExactAudioCopy v0.90b4
#
DISCID=2e118a14
DTITLE=Alabama - Country Side Of Life
DYEAR=1993
DGENRE=Country
TTITLE0=My Home's In Alabama
TTITLE1=Green River
TTITLE2=You Turn Me On
TTITLE3=The Closer You Get
TTITLE4=A Very Special Love
TTITLE5=There's A Fire In The Sky
TTITLE6=What In The Name Of Love
TTITLE7=Louisiana Moon
TTITLE8=When We Make Love
TTITLE9=Alabama Sky
TTITLE10=If You're Gonna Play In Texas
TTITLE11=Down On Longboat Key
TTITLE12=Can't Keep A Good Man Down
TTITLE13=Never Be One
TTITLE14=Lovin' Man
TTITLE15=Roll On Eighteen Wheeler
TTITLE16=If I Had You
TTITLE17=Carolina Mountain Dew
TTITLE18=Forty Hour Week (For A Livin')
TTITLE19=Country Side Of Life
EXTD=ID3G: 2
EXTT0=
EXTT1=
EXTT2=
EXTT3=
EXTT4=
EXTT5=
EXTT6=
EXTT7=
EXTT8=
EXTT9=
EXTT10=
EXTT11=
EXTT12=
EXTT13=
EXTT14=
EXTT15=
EXTT16=
EXTT17=
EXTT18=
EXTT19=
PLAYORDER=
